<svg id="Layer_1" data-name="Layer 1" xmlns="http://www.w3.org/2000/svg" xmlns:xlink="http://www.w3.org/1999/xlink" viewBox="0 0 32 32"><defs><style>.cls-1{fill:none;}.cls-2{fill:url(#linear-gradient);}</style><linearGradient id="linear-gradient" x1="326.85" y1="512.93" x2="342.72" y2="512.93" gradientUnits="userSpaceOnUse"><stop offset="0" stop-color="#045304"/><stop offset="0.35" stop-color="#065504"/><stop offset="0.5" stop-color="#0d5c06"/><stop offset="0.61" stop-color="#1a6708"/><stop offset="0.71" stop-color="#2c770b"/><stop offset="0.79" stop-color="#438d0f"/><stop offset="0.86" stop-color="#5fa714"/><stop offset="0.93" stop-color="#81c61a"/><stop offset="0.99" stop-color="#a7e920"/><stop offset="1" stop-color="#b0f122"/></linearGradient></defs><title>Therawel Logo</title><circle class="cls-1" cx="16" cy="16" r="16"/><path class="cls-2" d="M342.72,509.21V506h-4.64v-5.72l-4,1.22v4.86a5.6,5.6,0,0,0-2-1.37c-2.65-1.08-5.2,1.7-5.2,1.7,2.13.4,2.55,2.42,5,3a4.49,4.49,0,0,0,2.17-.05v10.86q.36,5.1,5.43,5.1a6.61,6.61,0,0,0,3.24-.64V521.7a3.33,3.33,0,0,1-2,.63,2.44,2.44,0,0,1-2-.8,4.18,4.18,0,0,1-.63-2.58v-9.74Z" transform="translate(-318.79 -496.93)"/></svg>